<svg xmlns="http://www.w3.org/2000/svg" viewBox="0 0 191.65 83.58"><defs><style>.cls-1,.cls-2{fill:#231f20;}.cls-2{font-size:24px;font-family:Lato-Light, Lato;letter-spacing:0.2em;}</style></defs><title>logo_1</title><g id="Layer_2" data-name="Layer 2"><g id="Layer_1-2" data-name="Layer 1"><path class="cls-1" d="M20.51,44.7a7.25,7.25,0,0,1-3.67-2.06,5.16,5.16,0,0,1-1.22-3.53,4.48,4.48,0,0,1,.22-1.48,2.83,2.83,0,0,1,.67-1.09,4.25,4.25,0,0,1,.83-.67,1.41,1.41,0,0,1,.7-.22,1.78,1.78,0,0,1,.82.16.74.74,0,0,1,.39.48l0,.12,0,.12a2,2,0,0,0-1.27.42,2.68,2.68,0,0,0-.81,1.25,4.15,4.15,0,0,0-.13.58,3.87,3.87,0,0,0,0,.58,3.14,3.14,0,0,0,.3,1.37,3.27,3.27,0,0,0,.89,1.11,7.49,7.49,0,0,0,1.23.84,6.82,6.82,0,0,0,1.33.55q1-5.82,1.61-9.33t.92-4.72A23.61,23.61,0,0,1,26,22.27a6,6,0,0,1,3.57-2.91l.52-.09.52,0a1.38,1.38,0,0,1,.72.17,1.06,1.06,0,0,1,.43.52l0,.14,0,.14a3.62,3.62,0,0,0-2.15.66,5.23,5.23,0,0,0-1.6,2A19.25,19.25,0,0,0,27,25.67a22.55,22.55,0,0,0-.68,3.08q-.25,1.61-.43,2.88t-.29,2.19q-.12.92-.25,2.14T25,38.68q-.16,1.51-.3,2.74t-.25,2.18a14.46,14.46,0,0,0,6.47-1.68,16.3,16.3,0,0,0,5.23-4.59A19.22,19.22,0,0,0,39.07,32a17.14,17.14,0,0,0,1-5.72,12.92,12.92,0,0,0-1.18-5.75,9.36,9.36,0,0,0-3.54-3.87,11,11,0,0,0-3.07-1.25A15.24,15.24,0,0,0,28.57,15a23,23,0,0,0-9.84,2,18.49,18.49,0,0,0-7.16,6,20.32,20.32,0,0,0-3,5.73,20,20,0,0,0-1,6.36,16.09,16.09,0,0,0,.86,5.6A8.15,8.15,0,0,0,11,44.36a5.49,5.49,0,0,0,3.57,1.27,2.19,2.19,0,0,1-.71,1,1.76,1.76,0,0,1-1.08.33,6.87,6.87,0,0,1-4.13-1.24A8.28,8.28,0,0,1,5.93,42a14.18,14.18,0,0,1-.82-2.75,15.63,15.63,0,0,1-.27-3,19.77,19.77,0,0,1,.26-3.14,24.93,24.93,0,0,1,.78-3.31,23.45,23.45,0,0,1,3.56-7.16,22.5,22.5,0,0,1,11.92-8.15,26.75,26.75,0,0,1,7.21-.94,19.13,19.13,0,0,1,8.19,1.57,11.27,11.27,0,0,1,5.11,4.71,12.75,12.75,0,0,1,1.25,2.91,10.8,10.8,0,0,1,.42,3,18.29,18.29,0,0,1-.24,3,19.24,19.24,0,0,1-.73,3,19.47,19.47,0,0,1-7.95,10.37,19.08,19.08,0,0,1-4.91,2.26,19.62,19.62,0,0,1-5.4.79A59.76,59.76,0,0,1,22,55.49a21.39,21.39,0,0,1-3.41,6.72A11.06,11.06,0,0,1,16.83,64a12.44,12.44,0,0,1-2.2,1.4,11.17,11.17,0,0,1-2.55.91,12.72,12.72,0,0,1-2.81.3,13.44,13.44,0,0,1-2.72-.26,9.32,9.32,0,0,1-2.29-.78,7.9,7.9,0,0,1-1.77-1.18,5.44,5.44,0,0,1-1.17-1.47,11.64,11.64,0,0,1-1-2.26A7,7,0,0,1,0,58.58a12.14,12.14,0,0,1,.14-1.89,10.7,10.7,0,0,1,.43-1.76,13.39,13.39,0,0,1,.71-1.68,15.46,15.46,0,0,1,1-1.66A8.35,8.35,0,0,1,3.51,50.1a9,9,0,0,1,1.61-1.19,7.56,7.56,0,0,1,3.86-1,2.15,2.15,0,0,1,1,.2,1.19,1.19,0,0,1,.56.6l.09.14.09.14A8.86,8.86,0,0,0,6.31,50a8.79,8.79,0,0,0-3.2,3.2,10.7,10.7,0,0,0-1.17,2.48,8.16,8.16,0,0,0,0,4.84,5.83,5.83,0,0,0,2.17,3.37A6.9,6.9,0,0,0,8.18,65a7.88,7.88,0,0,0,2.15-.29,7.49,7.49,0,0,0,1.94-.86A10.8,10.8,0,0,0,14,62.58,10.62,10.62,0,0,0,15.35,61a15,15,0,0,0,1.19-2,25.59,25.59,0,0,0,1.09-2.6,52,52,0,0,0,1.5-5.07Q19.84,48.36,20.51,44.7Z"/><path class="cls-1" d="M43,60.6A1.35,1.35,0,0,1,41.76,60a3.44,3.44,0,0,1-.4-1.86q0-.66.81-5.49t2.42-13.81a1.94,1.94,0,0,1,.37-.91.83.83,0,0,1,.66-.3,1.27,1.27,0,0,1,.91.37,2.82,2.82,0,0,1,.65,1.12,4.86,4.86,0,0,1,.22.84,5.63,5.63,0,0,1,.07.91,8.81,8.81,0,0,1-.06,1q-.06.51-.17,1.06l-.46,2.36-.46,2.36h.29A39.57,39.57,0,0,1,51.35,39q2.28-2.88,4.35-2.88a3.14,3.14,0,0,1,1.92.56,3.31,3.31,0,0,1,1.14,1.68,5.34,5.34,0,0,1,.22.93A7.39,7.39,0,0,1,59,40.35a4.69,4.69,0,0,1-.16,1.17,7.07,7.07,0,0,1-.47,1.27A4.22,4.22,0,0,1,57,44.49a3.31,3.31,0,0,1-1.91.56,1.35,1.35,0,0,1-.41-.06.85.85,0,0,1-.31-.17.9.9,0,0,1-.21-.27,1.17,1.17,0,0,1-.11-.36q.23,0,.53-.42a7.53,7.53,0,0,0,.68-1.27,11.9,11.9,0,0,0,.59-1.63,8.13,8.13,0,0,0,.27-1.51A1.93,1.93,0,0,0,56,38.21a1.14,1.14,0,0,0-.79-.53A3.24,3.24,0,0,0,53,39a19.41,19.41,0,0,0-2.58,3.93Q49,45.54,47.91,48T46,52.94q-.84,2.39-1.33,3.95T44,59.16a2.83,2.83,0,0,1-.4,1.08A.76.76,0,0,1,43,60.6Z"/><path class="cls-1" d="M63.76,52.19A9,9,0,0,0,65,57.42a4.26,4.26,0,0,0,3.72,1.74,4.85,4.85,0,0,0,1.89-.41,8.53,8.53,0,0,0,2-1.23,19.12,19.12,0,0,0,2-1.81,21.67,21.67,0,0,0,1.76-2.14q1.84-2.65,3.14-4.81a37.28,37.28,0,0,0,2-3.83l.37-.81.37-.81h1.55q-.49,1.15-1.21,2.57T80.93,49q-.95,1.68-1.86,3.1T77.3,54.67a22,22,0,0,1-1.89,2.2,23.55,23.55,0,0,1-2.2,2,9.86,9.86,0,0,1-2.3,1.4,5.67,5.67,0,0,1-2.19.47q-4.26,0-6.39-2.39t-2.13-7.17a15.75,15.75,0,0,1,.65-4.43,19.81,19.81,0,0,1,1.94-4.44,14.18,14.18,0,0,1,4-4.62,8.24,8.24,0,0,1,4.82-1.54,3.56,3.56,0,0,1,2.76,1,4.35,4.35,0,0,1,.92,3,8.75,8.75,0,0,1-.58,3.05A13.66,13.66,0,0,1,73,46.37a12,12,0,0,1-3.5,3.3,8.06,8.06,0,0,1-4,1.14.87.87,0,0,1-.52-.14.79.79,0,0,1-.29-.43l0-.12,0-.12a5.11,5.11,0,0,0,2.93-1,11.46,11.46,0,0,0,2.8-3,19.86,19.86,0,0,0,2.05-3.62,7.87,7.87,0,0,0,.68-3,2.17,2.17,0,0,0-.35-1.34,1.23,1.23,0,0,0-1-.45,4.3,4.3,0,0,0-3,1.34A14.05,14.05,0,0,0,66,43a22.66,22.66,0,0,0-1.64,4.56A19.71,19.71,0,0,0,63.76,52.19Z"/><path class="cls-1" d="M89,30.47h.12l.24.05.22.09a1,1,0,0,1,.19.14,1.17,1.17,0,0,1,.16.18,1.77,1.77,0,0,1,.13.2,1.48,1.48,0,0,1,.09.21,1.33,1.33,0,0,1,.05.21,1.28,1.28,0,0,1,0,.21,1,1,0,0,1,0,.28,3.51,3.51,0,0,1-.15.39q-.1.23-.24.51t-.34.63q-.19.35-.34.66a6.34,6.34,0,0,0-.24.59,3.88,3.88,0,0,0-.15.52,2.32,2.32,0,0,0,0,.45q0,.21,0,.41t0,.4q0,.19.07.38t.1.37q.06.18.18.49l.3.74.42,1,.54,1.25q.66,1.51,1.16,2.94t.83,2.78a24.08,24.08,0,0,1,.5,2.62A19,19,0,0,1,93,51.64a15.55,15.55,0,0,1-.16,2.27A12.59,12.59,0,0,1,92.37,56a11,11,0,0,1-.8,1.86,10.57,10.57,0,0,1-1.12,1.66,10.16,10.16,0,0,1-1.34,1.36,7.92,7.92,0,0,1-1.47,1,7.05,7.05,0,0,1-1.59.58,7.43,7.43,0,0,1-1.71.19,4.12,4.12,0,0,1-1.55-.27,2.74,2.74,0,0,1-1.11-.8A3.56,3.56,0,0,1,81,60.19a7.11,7.11,0,0,1-.22-1.88A12.87,12.87,0,0,1,81,56.13a15.48,15.48,0,0,1,.57-2.26,19.63,19.63,0,0,1,1-2.33,25.61,25.61,0,0,1,1.34-2.41q.45-.71.91-1.32t.95-1.15a13.05,13.05,0,0,1,1-1,10.73,10.73,0,0,1,1-.81,1,1,0,0,1,.26-.14.41.41,0,0,1,.22,0,.32.32,0,0,1,.17.1.67.67,0,0,1,.12.23,1.05,1.05,0,0,1,.06.27.72.72,0,0,1,0,.24.67.67,0,0,1-.11.22.91.91,0,0,1-.19.19,11.36,11.36,0,0,0-1.58,1.39,13.53,13.53,0,0,0-1.39,1.74,17.23,17.23,0,0,0-1.2,2.09,22.74,22.74,0,0,0-1,2.44,20.17,20.17,0,0,0-.65,2.18,10.7,10.7,0,0,0-.27,1.82,5.4,5.4,0,0,0,.1,1.46,3,3,0,0,0,.47,1.1,1.66,1.66,0,0,0,.26.3,1.41,1.41,0,0,0,.31.22,1.47,1.47,0,0,0,.36.13,1.84,1.84,0,0,0,.41,0,3.38,3.38,0,0,0,1.2-.21A3.55,3.55,0,0,0,86.29,60,5.2,5.2,0,0,0,87.21,59,8.85,8.85,0,0,0,88,57.48a15.3,15.3,0,0,0,.63-1.8,19.23,19.23,0,0,0,.45-2q.18-1.06.27-2.22T89.44,49q0-1.09-.06-2.15t-.19-2.07q-.13-1-.32-2t-.45-1.91l-.46-1.67-.35-1.28-.23-.88q-.09-.34-.12-.49l-.88,1.69-.92,1.79L84.5,42l-1,2h-.78l-.48.26v-.89c.37-.81.45-.8,1-2s1.16-2.31,1.59-3.12L86,36l1-1.84a10.42,10.42,0,0,1,.21-1.61,4.43,4.43,0,0,1,.41-1.15,1.89,1.89,0,0,1,.6-.69A1.41,1.41,0,0,1,89,30.47Z"/><path class="cls-1" d="M101.83,52.42A8.92,8.92,0,0,0,103,57.48a4,4,0,0,0,3.5,1.68,4.85,4.85,0,0,0,1.89-.41,8.53,8.53,0,0,0,2-1.23,19.12,19.12,0,0,0,2-1.81,21.67,21.67,0,0,0,1.76-2.14q1.84-2.65,3.14-4.81a37.28,37.28,0,0,0,2-3.83l.37-.81.37-.81h1.56q-.49,1.15-1.21,2.57T118.71,49q-.95,1.68-1.86,3.1t-1.77,2.57a22,22,0,0,1-1.89,2.2,23.57,23.57,0,0,1-2.2,2,9.86,9.86,0,0,1-2.3,1.4,5.67,5.67,0,0,1-2.19.47,8.18,8.18,0,0,1-4.9-1.37,7.44,7.44,0,0,1-2.71-4.1,11.62,11.62,0,0,1-.39-2,20.38,20.38,0,0,1-.13-2.4,12.07,12.07,0,0,1,.4-2.92A24.15,24.15,0,0,1,100,44.47a18,18,0,0,1,2.79-4.72,11,11,0,0,1,3.66-2.88,8.33,8.33,0,0,1,1.61-.56,7,7,0,0,1,1.59-.19,4.34,4.34,0,0,1,1.42.22,3,3,0,0,1,1.09.65A3.62,3.62,0,0,1,113,38.1a3,3,0,0,1,.27,1.27,11.39,11.39,0,0,1-.07,1.3,9.42,9.42,0,0,1-.22,1.2,4.2,4.2,0,0,1-.44,1.09,4.62,4.62,0,0,1-.74,1,3.19,3.19,0,0,1-.94.67,2.52,2.52,0,0,1-1,.22.58.58,0,0,1-.4-.16,1.18,1.18,0,0,1-.29-.48q.23,0,.54-.41a7.35,7.35,0,0,0,.7-1.23,8.36,8.36,0,0,0,.58-1.63,6.94,6.94,0,0,0,.19-1.62,1.82,1.82,0,0,0-.35-1.21,1.29,1.29,0,0,0-1-.4,4.19,4.19,0,0,0-2.86,1.25,12.61,12.61,0,0,0-2.58,3.76,25.35,25.35,0,0,0-1.84,4.94A19.62,19.62,0,0,0,101.83,52.42Z"/><path class="cls-1" d="M119.17,60.6A1.35,1.35,0,0,1,118,60a3.44,3.44,0,0,1-.4-1.86q0-.66.81-5.49t2.42-13.81a1.94,1.94,0,0,1,.37-.91.83.83,0,0,1,.66-.3,1.27,1.27,0,0,1,.91.37,2.82,2.82,0,0,1,.65,1.12,4.86,4.86,0,0,1,.22.84,5.63,5.63,0,0,1,.07.91,8.81,8.81,0,0,1-.06,1q-.06.51-.17,1.06L123,45.28l-.46,2.36h.29A39.57,39.57,0,0,1,127.55,39q2.28-2.88,4.35-2.88a3.14,3.14,0,0,1,1.92.56A3.31,3.31,0,0,1,135,38.37a5.34,5.34,0,0,1,.22.93,7.39,7.39,0,0,1,.07,1.06,4.69,4.69,0,0,1-.16,1.17,7.07,7.07,0,0,1-.47,1.27,4.22,4.22,0,0,1-1.37,1.68,3.31,3.31,0,0,1-1.91.56,1.35,1.35,0,0,1-.41-.06.85.85,0,0,1-.31-.17.9.9,0,0,1-.21-.27,1.17,1.17,0,0,1-.11-.36q.23,0,.53-.42a7.53,7.53,0,0,0,.68-1.27,11.9,11.9,0,0,0,.59-1.63,8.13,8.13,0,0,0,.27-1.51,1.93,1.93,0,0,0-.19-1.14,1.14,1.14,0,0,0-.79-.53,3.24,3.24,0,0,0-2.2,1.31,19.41,19.41,0,0,0-2.58,3.93q-1.38,2.62-2.49,5.13t-1.94,4.9q-.84,2.39-1.33,3.95t-.63,2.27a2.83,2.83,0,0,1-.4,1.08A.76.76,0,0,1,119.17,60.6Z"/><path class="cls-1" d="M141,59.22a2.92,2.92,0,0,0,1.8-1,18.65,18.65,0,0,0,2.41-3q1.35-2,2.52-4t2.15-4l1-2,1-2h1.55l-.4.81-.5,1.06q-.27.59-.81,1.64t-1.35,2.56q-.81,1.51-1.58,2.84t-1.5,2.48q-.73,1.15-1.56,2.2a25.41,25.41,0,0,1-1.73,2,8.53,8.53,0,0,1-1.69,1.4,2.87,2.87,0,0,1-1.45.47,3.78,3.78,0,0,1-3.2-1.38,6.74,6.74,0,0,1-1.07-4.15,33.06,33.06,0,0,1,.59-5.44q.59-3.37,1.77-8l.21-.86q.09-.37.17-.63t.15-.6q.08-.34.17-.76t.17-.8q.09-.38.17-.73a2.16,2.16,0,0,1,.4-.91.8.8,0,0,1,.63-.3,1.22,1.22,0,0,1,.89.37,2.69,2.69,0,0,1,.61,1.12,4.33,4.33,0,0,1,.17.76,6.63,6.63,0,0,1,.06.91,8.9,8.9,0,0,1-.06,1q-.06.51-.17,1t-.3,1.32q-.19.78-.45,1.82t-.46,1.89q-.2.85-.35,1.51t-.3,1.47q-.16.81-.33,1.76-.32,1.58-.47,3a23.57,23.57,0,0,0-.16,2.63,4,4,0,0,0,.33,1.84A1.07,1.07,0,0,0,141,59.22Zm3.69-33.12a1.16,1.16,0,0,1,1,.45,2.24,2.24,0,0,1,.33,1.34,3.07,3.07,0,0,1-.43,1.61,3.9,3.9,0,0,1-1.3,1.27,4.19,4.19,0,0,1-.81.43,1.94,1.94,0,0,1-.69.14,1.59,1.59,0,0,1-.73-.14.7.7,0,0,1-.36-.43l0-.09,0-.09a.53.53,0,0,0,.45-.28,2.45,2.45,0,0,0,.3-.84,10.58,10.58,0,0,1,.29-1.12,12,12,0,0,1,.43-1.12,2,2,0,0,1,.64-.84A1.59,1.59,0,0,1,144.69,26.1Z"/><path class="cls-1" d="M158.8,59a3.2,3.2,0,0,0,2.29-1.48,20.15,20.15,0,0,0,2.49-4.45,36.86,36.86,0,0,0,2-6,24.24,24.24,0,0,0,.66-5.46,6.14,6.14,0,0,0-.46-2.69,1.54,1.54,0,0,0-1.38-.94,3.35,3.35,0,0,0-1.91.72,11,11,0,0,0-2.15,2.16A30.77,30.77,0,0,0,158.16,44a39.57,39.57,0,0,0-2,3.66q-2,4.29-3.23,7.5a41,41,0,0,0-1.73,5.34q-1.53,6.91-2.58,11.2t-1.63,6a15.37,15.37,0,0,1-2.16,4.41,3.19,3.19,0,0,1-2.45,1.47,1.75,1.75,0,0,1-1.51-.69,3.51,3.51,0,0,1-.5-2.07,11.88,11.88,0,0,1,.17-1.87q.17-1.07.52-2.39a43.08,43.08,0,0,1,2.29-6.26,46.54,46.54,0,0,1,3.3-6l.78-1.07.78-1.07q.26-1.3.6-3.17t.78-4.32q.86-4.92,1.49-8.19t1-4.86a18,18,0,0,1,.85-2.69,6,6,0,0,1,1-1.69,5.24,5.24,0,0,1,1-.89,1.55,1.55,0,0,1,.83-.3,1.29,1.29,0,0,1,1,.29.83.83,0,0,1,.06.86q-.72,2.36-1.47,5.16t-1.53,6h.4a42.74,42.74,0,0,1,5.37-9.2q2.55-3.07,4.82-3.07a4,4,0,0,1,3,1.18,6.85,6.85,0,0,1,1.61,3.54q.14.75.22,1.51t.07,1.54a19.28,19.28,0,0,1-.43,4,27.18,27.18,0,0,1-1.3,4.28,19,19,0,0,1-2.82,5.17,9.22,9.22,0,0,1-3.63,2.84,6.56,6.56,0,0,1-1.21.39,5.75,5.75,0,0,1-1.21.13,3.11,3.11,0,0,1-2.23-.78,3.89,3.89,0,0,1-1.05-2.33,1.19,1.19,0,0,1,0-.46.79.79,0,0,1,.2-.35.68.68,0,0,1,.32-.19.72.72,0,0,1,.38,0,.61.61,0,0,1,.32.2.73.73,0,0,1,.14.37,2.44,2.44,0,0,0,.63,1.43A1.82,1.82,0,0,0,158.8,59ZM142.27,82q1.12,0,2.51-4.35a119.84,119.84,0,0,0,3-13,47.46,47.46,0,0,0-3.07,5.59,52.93,52.93,0,0,0-2.4,6.16q-.46,1.44-.69,2.51a8.64,8.64,0,0,0-.23,1.76,2,2,0,0,0,.22,1A.71.71,0,0,0,142.27,82Z"/><path class="cls-1" d="M173.49,35.43a.57.57,0,0,1,.2-.47,1,1,0,0,1,.6-.16h3l.33-1.3.42-1.58.4-1.5.4-1.5.32-1.27q.15-.6.28-1.15a1.82,1.82,0,0,1,.38-.82.82.82,0,0,1,.63-.27,1.1,1.1,0,0,1,.84.37,2.67,2.67,0,0,1,.55,1.12,4.64,4.64,0,0,1,.13.71,7.72,7.72,0,0,1,0,.85,7.34,7.34,0,0,1-.09,1.05q-.09.59-.26,1.31l-.55,2-.55,2h3.57a1,1,0,0,1,.44.09.64.64,0,0,1,.28.26.67.67,0,0,1,.1.34.6.6,0,0,1-.1.32.63.63,0,0,1-.28.24,1.09,1.09,0,0,1-.44.08h-3.92q-1.79,6.71-2.68,11.46a43.27,43.27,0,0,0-.89,7.55,7.82,7.82,0,0,0,.46,3.07,1.48,1.48,0,0,0,1.38,1,2.92,2.92,0,0,0,1.8-1,18.65,18.65,0,0,0,2.41-3q1.35-2,2.52-4t2.15-4l1-2,1-2h1.55l-.4.81-.5,1.06q-.27.59-.81,1.64t-1.35,2.56q-.81,1.51-1.58,2.84t-1.5,2.48q-.73,1.15-1.56,2.2a25.41,25.41,0,0,1-1.73,2,7.75,7.75,0,0,1-1.75,1.4,3.34,3.34,0,0,1-1.62.47,4.08,4.08,0,0,1-1.45-.25,3.88,3.88,0,0,1-1.23-.76,4.07,4.07,0,0,1-.92-1.22,5.88,5.88,0,0,1-.52-1.66q-.16-.94-.24-1.89t-.08-1.94a37.58,37.58,0,0,1,.81-6.51q.81-4.23,2.42-10.43h-2.59a1,1,0,0,1-.39-.06.52.52,0,0,1-.25-.19,1.32,1.32,0,0,1-.13-.24A.53.53,0,0,1,173.49,35.43Z"/><path class="cls-1" d="M189.15,62.42c.31.64.65,1.22,1,1.82h1.52a27.73,27.73,0,0,1-2.07-4.17q-1.17-2.79-2.17-5.57t-1.85-5.57l-.85-2.79-.85-2.79h-1.34l.34,1.14.43,1.48q.24.83.7,2.3t1.16,3.59q.7,2.12,1.36,4t1.3,3.48Q188.45,61,189.15,62.42Z"/><text class="cls-2" transform="translate(51.98 20.49)">THE</text></g></g></svg>