<?xml version="1.0" encoding="utf-8"?>
<!-- Generator: Adobe Illustrator 20.1.0, SVG Export Plug-In . SVG Version: 6.00 Build 0)  -->
<svg version="1.1" id="Layer_1" xmlns="http://www.w3.org/2000/svg" xmlns:xlink="http://www.w3.org/1999/xlink" x="0px" y="0px"
	 viewBox="0 0 414.6 122.3" style="enable-background:new 0 0 414.6 122.3;" xml:space="preserve">
<g>
	<path d="M0,37h18.8c2.8,0,5.4,0.4,7.7,1.1c2.3,0.7,4.3,1.8,6,3.2c1.7,1.4,2.9,3,3.8,5c0.9,2,1.3,4.2,1.3,6.7v0.1
		c0,2.7-0.5,5.1-1.6,7.2c-1.1,2-2.5,3.8-4.3,5.1c-1.8,1.4-3.9,2.4-6.3,3.1c-2.4,0.7-4.9,1-7.6,1H5.7v17.8H0V37z M18.1,64.5
		c2.1,0,3.9-0.3,5.7-0.8c1.7-0.5,3.2-1.3,4.4-2.3c1.2-1,2.2-2.1,2.8-3.5s1-2.9,1-4.5v-0.1c0-3.6-1.2-6.3-3.7-8.2
		c-2.5-1.8-5.7-2.8-9.8-2.8H5.7v22.2H18.1z"/>
	<path d="M48.1,37h21.6c3.1,0,5.9,0.4,8.3,1.3c2.4,0.9,4.4,2.1,6,3.7c1.2,1.2,2.2,2.7,2.9,4.4c0.7,1.7,1,3.5,1,5.5v0.1
		c0,2.1-0.3,4-1,5.7s-1.6,3.1-2.8,4.3c-1.2,1.2-2.7,2.2-4.3,3c-1.7,0.8-3.5,1.4-5.5,1.7l15.5,20.6h-7L68.2,67.9H53.8v19.6h-5.7V37z
		 M69.3,62.7c1.9,0,3.6-0.2,5.2-0.7c1.6-0.5,3-1.2,4.1-2.1c1.2-0.9,2.1-2,2.7-3.2c0.6-1.3,1-2.7,1-4.4v-0.1c0-3.1-1.1-5.6-3.4-7.3
		c-2.3-1.8-5.4-2.6-9.5-2.6H53.8v20.4H69.3z"/>
	<path d="M100.2,37h36.4v5.2h-30.7v17.2h27.5v5.2h-27.5v17.6h31.1v5.2h-36.8V37z"/>
	<path d="M165.7,88.2c-4,0-7.7-0.7-11.1-2c-3.3-1.3-6.5-3.3-9.5-6.1l3.5-4.2c2.6,2.4,5.3,4.2,8,5.4c2.7,1.2,5.8,1.8,9.3,1.8
		c3.4,0,6.1-0.8,8.2-2.4c2-1.6,3.1-3.7,3.1-6.2v-0.1c0-1.2-0.2-2.2-0.6-3.1c-0.4-0.9-1.1-1.8-2-2.6c-1-0.8-2.3-1.5-4-2.1
		c-1.7-0.6-3.9-1.2-6.5-1.8c-2.9-0.6-5.4-1.3-7.5-2.2c-2.1-0.8-3.9-1.8-5.3-3c-1.4-1.2-2.4-2.5-3.1-4c-0.7-1.5-1-3.3-1-5.4v-0.1
		c0-2,0.4-3.8,1.2-5.5c0.8-1.7,2-3.1,3.5-4.4c1.5-1.2,3.2-2.2,5.3-2.9c2-0.7,4.2-1,6.6-1c3.7,0,6.9,0.5,9.7,1.5c2.8,1,5.4,2.6,8,4.6
		l-3.3,4.4c-2.4-1.9-4.7-3.3-7.1-4.2s-4.9-1.3-7.5-1.3c-3.3,0-5.9,0.8-7.8,2.3c-1.9,1.6-2.9,3.5-2.9,5.8v0.1c0,1.2,0.2,2.3,0.6,3.2
		c0.4,0.9,1.1,1.8,2.1,2.6s2.4,1.5,4.2,2.2c1.8,0.6,4,1.3,6.8,1.8c5.6,1.2,9.7,3,12.4,5.2c2.7,2.2,4,5.2,4,9.1v0.1
		c0,2.2-0.4,4.1-1.3,5.9c-0.9,1.8-2,3.3-3.5,4.5c-1.5,1.2-3.3,2.2-5.4,2.9C170.5,87.8,168.2,88.2,165.7,88.2z"/>
	<path d="M217.5,88.3c-3.6,0-7-0.7-10.1-2c-3.1-1.3-5.7-3.2-8-5.5c-2.3-2.3-4-5.1-5.3-8.2c-1.3-3.2-1.9-6.6-1.9-10.2v-0.1
		c0-3.6,0.6-6.9,1.9-10.1c1.3-3.2,3-5.9,5.3-8.3c2.3-2.4,4.9-4.2,8.1-5.6c3.1-1.4,6.5-2.1,10.2-2.1c2.3,0,4.4,0.2,6.2,0.6
		c1.8,0.4,3.6,0.9,5.1,1.6c1.6,0.7,3,1.5,4.4,2.5c1.3,1,2.6,2.1,3.9,3.3l-3.9,4.2c-2.2-2-4.5-3.7-6.9-5c-2.5-1.3-5.4-1.9-8.9-1.9
		c-2.8,0-5.4,0.5-7.7,1.6c-2.4,1.1-4.4,2.5-6.2,4.4c-1.8,1.9-3.1,4.1-4.1,6.6c-1,2.5-1.5,5.2-1.5,8.1v0.1c0,2.9,0.5,5.7,1.5,8.2
		c1,2.5,2.4,4.7,4.1,6.6c1.8,1.9,3.8,3.3,6.2,4.4c2.4,1.1,5,1.6,7.7,1.6c3.5,0,6.4-0.6,8.9-1.9c2.5-1.3,4.9-3.1,7.3-5.4l3.7,3.7
		c-1.3,1.3-2.7,2.6-4.1,3.6c-1.4,1.1-2.9,2-4.6,2.8c-1.6,0.8-3.4,1.4-5.3,1.8C221.9,88.1,219.8,88.3,217.5,88.3z"/>
	<path d="M247.6,37h21.6c3.1,0,5.9,0.4,8.3,1.3c2.4,0.9,4.4,2.1,6,3.7c1.2,1.2,2.2,2.7,2.9,4.4c0.7,1.7,1,3.5,1,5.5v0.1
		c0,2.1-0.3,4-1,5.7c-0.7,1.7-1.6,3.1-2.8,4.3c-1.2,1.2-2.7,2.2-4.3,3c-1.7,0.8-3.5,1.4-5.5,1.7l34.5,54.5h-7l-33.6-53.5h-14.4v19.6
		h-5.7V37z M268.8,62.7c1.9,0,3.6-0.2,5.2-0.7c1.6-0.5,3-1.2,4.1-2.1c1.2-0.9,2.1-2,2.7-3.2c0.6-1.3,1-2.7,1-4.4v-0.1
		c0-3.1-1.1-5.6-3.4-7.3c-2.3-1.8-5.4-2.6-9.5-2.6h-15.6v20.4H268.8z"/>
	<path d="M310.2,37h5.7v50.4h-5.7V37z"/>
	<path d="M330.6,37h18.8c2.8,0,5.4,0.4,7.7,1.1c2.3,0.7,4.3,1.8,6,3.2c1.7,1.4,2.9,3,3.8,5c0.9,2,1.3,4.2,1.3,6.7v0.1
		c0,2.7-0.5,5.1-1.6,7.2c-1.1,2-2.5,3.8-4.3,5.1c-1.8,1.4-3.9,2.4-6.3,3.1c-2.4,0.7-4.9,1-7.6,1h-12.2v17.8h-5.7V37z M348.8,64.5
		c2.1,0,3.9-0.3,5.7-0.8c1.7-0.5,3.2-1.3,4.4-2.3c1.2-1,2.2-2.1,2.8-3.5s1-2.9,1-4.5v-0.1c0-3.6-1.2-6.3-3.7-8.2
		c-2.5-1.8-5.7-2.8-9.8-2.8h-12.7v22.2H348.8z"/>
	<path d="M392,42.3h-16.9V37h39.5v5.3h-16.9v45.1H392V42.3z"/>
</g>
<polyline points="301.8,79.8 279.8,122.3 278.2,121.6 300.9,77.7 "/>
<g>
	<path d="M22.2,5.9c0.4,0,0.6,0.2,0.7,0.5l0,0.2c-1.9,0-3.1,1.9-3.6,5.7c-0.3,1.7-0.5,3.6-0.7,5.7c-0.2,2.1-0.4,4.1-0.8,6.2
		c-0.4,2.1-0.9,3.9-1.5,5.6c-0.7,1.7-1.7,3.1-3,4.1c-1.4,1.1-3.1,1.6-5,1.6c-1.3,0-2.4-0.2-3.4-0.7c-0.9-0.5-1.6-1.2-2-2
		c-0.5-1-0.8-2-0.8-3c0-0.9,0.1-1.8,0.4-2.7c0.3-0.9,0.7-1.7,1.2-2.5c0.5-0.8,1.2-1.5,2-2c0.8-0.5,1.7-0.7,2.6-0.7
		c0.5,0,0.8,0.2,1,0.5l0.1,0.2c-2.2,0-3.9,1-5.1,3c-0.8,1.3-1.2,2.6-1.2,4c0,0.4,0.1,0.9,0.2,1.3c0.4,1.9,1.4,3,3.1,3.4
		c0.4,0.1,0.8,0.2,1.3,0.2c1.5,0,2.8-0.5,3.9-1.6c1.1-1,1.9-2.4,2.5-4.1c0.6-1.7,1-3.5,1.4-5.6c0.4-2,0.7-4.1,1-6.1s0.7-3.9,1.1-5.6
		c0.4-1.7,1-3,1.8-4.1C20.1,6.4,21.1,5.9,22.2,5.9z M30.3,1c0.8,0,1.3,0.5,1.3,1.5c0,0.8-0.4,1.5-1.2,2.1c-0.8,0.7-2.1,1-3.8,1
		s-3.9-0.4-6.5-1.3c-2.6-0.8-4.7-1.3-6.2-1.3c-3.3,0-5.9,1.3-7.7,4c-1.3,1.8-1.9,3.7-1.9,5.8c0,2.9,1,4.9,3,5.8
		c0.7,0.3,1.5,0.5,2.3,0.5c0,0.2-0.1,0.4-0.3,0.6C9.1,19.9,8.9,20,8.6,20c-2.7,0-4.6-1.1-5.6-3.3c-0.5-1-0.7-2.2-0.7-3.3
		c0-1.2,0.2-2.4,0.7-3.6c1-2.8,2.8-4.8,5.3-6.1c1.7-0.8,3.4-1.3,5.3-1.3c1.9,0,4,0.4,6.4,1.1s4.3,1.1,5.8,1.1c2.2,0,3.5-0.5,3.8-1.5
		c0.2-0.5,0.1-0.8-0.2-1c-0.1,0-0.1,0-0.1,0C29.4,1.3,29.8,1,30.3,1z"/>
	<path d="M32.8,1.3c1.2,0,1.7,0.8,1.7,2.3c0,0.4,0,0.8-0.1,1.3c-0.4,2.4-1.4,4.9-3,7.5c-1.2,1.9-2.3,3-3.3,3.5
		c-0.5,2.8-1,5.3-1.3,7.5H27c2.2-4.8,4.3-7.2,6.5-7.2c0.8,0,1.4,0.2,1.9,0.7c0.4,0.5,0.7,1.2,0.7,2s-0.3,2.7-1,5.5
		c-0.7,2.9-1,4.8-1,6c0,1.7,0.3,2.5,0.9,2.5c0,0.2-0.1,0.4-0.3,0.5c-0.2,0.2-0.5,0.3-0.8,0.3c-1.5,0-2.2-1.2-2.2-3.5
		c0-1.4,0.4-3.6,1.1-6.4c0.8-2.8,1.1-4.7,1.1-5.5c0-0.8-0.3-1.2-1-1.2c-0.7,0-1.6,0.6-2.5,1.9s-1.7,2.9-2.5,4.8
		c-1.3,3.1-2.2,5.7-2.9,7.8c-0.2,0.5-0.4,0.8-0.7,0.8c-0.5,0-0.8-0.3-1-0.8c-0.1-0.3-0.2-0.6-0.2-1s0.1-1,0.3-1.9
		c0.2-0.9,0.5-2.6,1-4.9c0.5-2.4,0.9-4.3,1.2-5.9c0.3-1.5,0.7-3.3,1.2-5.2c0.4-1.9,0.9-3.5,1.2-4.7c0.4-1.2,0.9-2.4,1.4-3.5
		C30.4,2.4,31.5,1.3,32.8,1.3z M33.6,3.7c0-0.8-0.2-1.3-0.7-1.5c-1.5,0-3.1,4.2-4.7,12.7c1-0.7,2.1-2.2,3.2-4.3
		C32.9,7.7,33.6,5.4,33.6,3.7z"/>
	<path d="M41.8,27c0,3.1,1.1,4.6,3.3,4.6c0.8,0,1.7-0.4,2.6-1.1c0.9-0.7,1.7-1.6,2.5-2.6c1.6-2.4,2.8-4.3,3.5-5.8l0.5-1.1h1
		c-0.4,1-1.1,2.3-1.9,3.8c-0.8,1.5-1.7,2.8-2.4,3.8c-0.8,1-1.7,2-2.7,2.8c-1.1,0.8-2,1.2-3,1.2c-3.8,0-5.7-2.1-5.7-6.4
		c0-2,0.6-3.9,1.7-5.9c1.6-2.7,3.5-4.1,5.9-4.1c1.6,0,2.5,0.9,2.5,2.7c0,1.3-0.5,2.7-1.5,4.1c-1.4,1.9-3.1,2.9-5,3
		c-0.3,0-0.5-0.1-0.5-0.4l0-0.2c1.3,0,2.6-0.9,3.8-2.6c1.2-1.8,1.8-3.2,1.8-4.4c0-0.8-0.3-1.2-0.9-1.2c-1.4,0-2.6,1.2-3.8,3.6
		C42.3,23,41.8,25,41.8,27z"/>
</g>
</svg>
