<svg id="Layer_1" data-name="Layer 1" xmlns="http://www.w3.org/2000/svg" viewBox="0 0 414.64 122.31"><defs><style>.cls-1,.cls-2{fill:#231f20;}.cls-2{font-size:48px;font-family:RougeScript-Regular, Rouge Script;}</style></defs><title>logo</title><path class="cls-1" d="M0,37H18.83a25.27,25.27,0,0,1,7.73,1.12,17.74,17.74,0,0,1,6,3.17,13.73,13.73,0,0,1,3.81,5A16.14,16.14,0,0,1,37.66,53v.14A14.88,14.88,0,0,1,31.8,65.48a18.6,18.6,0,0,1-6.29,3.13,27.15,27.15,0,0,1-7.61,1H5.69V87.44H0ZM18.14,64.48a19,19,0,0,0,5.65-.79,13.13,13.13,0,0,0,4.39-2.27A10,10,0,0,0,31,57.92a10.31,10.31,0,0,0,1-4.54v-.14q0-5.4-3.71-8.17T18.43,42.3H5.69V64.48Z"/><path class="cls-1" d="M48.1,37H69.73A24,24,0,0,1,78,38.38a16.25,16.25,0,0,1,6,3.71,13,13,0,0,1,2.87,4.39,14.83,14.83,0,0,1,1,5.54v.14a15,15,0,0,1-1,5.65,12.9,12.9,0,0,1-2.84,4.32,15.34,15.34,0,0,1-4.35,3,21,21,0,0,1-5.46,1.69L89.74,87.44h-7L68.15,67.86H53.78V87.44H48.1Zm21.17,25.7A17.79,17.79,0,0,0,74.45,62,12.64,12.64,0,0,0,78.55,60a9.22,9.22,0,0,0,3.67-7.6v-.14a8.73,8.73,0,0,0-3.38-7.31q-3.39-2.63-9.5-2.63H53.78V62.75Z"/><path class="cls-1" d="M100.15,37h36.43v5.18H105.84V59.44h27.5v5.18h-27.5V82.26h31.1v5.18H100.15Z"/><path class="cls-1" d="M165.67,88.16a29.8,29.8,0,0,1-11.05-2,31.57,31.57,0,0,1-9.54-6.08l3.53-4.18a29.69,29.69,0,0,0,8,5.36,23,23,0,0,0,9.29,1.76,12.84,12.84,0,0,0,8.17-2.41,7.51,7.51,0,0,0,3.06-6.16v-.14a8.19,8.19,0,0,0-.58-3.13,6.45,6.45,0,0,0-2-2.56,14.34,14.34,0,0,0-4-2.09,51.37,51.37,0,0,0-6.52-1.8,52.18,52.18,0,0,1-7.52-2.16,18.69,18.69,0,0,1-5.29-3,10.84,10.84,0,0,1-3.1-4,13.37,13.37,0,0,1-1-5.4v-.14a12.35,12.35,0,0,1,1.22-5.47,12.87,12.87,0,0,1,3.46-4.36A16.83,16.83,0,0,1,157,37.37a20.19,20.19,0,0,1,6.62-1,27.63,27.63,0,0,1,9.68,1.55,29.55,29.55,0,0,1,8,4.64l-3.31,4.39A24.64,24.64,0,0,0,171,42.73a21.63,21.63,0,0,0-7.45-1.3,12.09,12.09,0,0,0-7.85,2.34,7.19,7.19,0,0,0-2.88,5.8v.14a8.39,8.39,0,0,0,.57,3.2,6.48,6.48,0,0,0,2.08,2.59,15.21,15.21,0,0,0,4.17,2.16,49.81,49.81,0,0,0,6.82,1.84q8.4,1.87,12.39,5.18a11.17,11.17,0,0,1,4,9.07v.14a13.23,13.23,0,0,1-1.28,5.87,13.45,13.45,0,0,1-3.53,4.5,15.86,15.86,0,0,1-5.42,2.88A22.7,22.7,0,0,1,165.67,88.16Z"/><path class="cls-1" d="M217.51,88.31a24.78,24.78,0,0,1-18.07-7.52,25.15,25.15,0,0,1-5.29-8.24,27,27,0,0,1-1.91-10.15v-.14a26.79,26.79,0,0,1,1.91-10.08,26,26,0,0,1,5.29-8.32,24.6,24.6,0,0,1,8.06-5.62,25.17,25.17,0,0,1,10.22-2.05,30.83,30.83,0,0,1,6.23.58,26,26,0,0,1,5.15,1.62,23.26,23.26,0,0,1,4.39,2.52,38.38,38.38,0,0,1,3.89,3.28l-3.89,4.18a31.88,31.88,0,0,0-6.95-5,19.44,19.44,0,0,0-22.82,4,20.36,20.36,0,0,0-4.1,6.59,22.07,22.07,0,0,0-1.48,8.1v.14a22.26,22.26,0,0,0,1.48,8.17,20.34,20.34,0,0,0,4.1,6.59,19.37,19.37,0,0,0,6.19,4.43,18.48,18.48,0,0,0,7.74,1.62,19.44,19.44,0,0,0,8.93-1.91,31.08,31.08,0,0,0,7.34-5.36l3.74,3.67a35.65,35.65,0,0,1-4.07,3.64A25.23,25.23,0,0,1,229,85.86a26,26,0,0,1-5.26,1.8A27.86,27.86,0,0,1,217.51,88.31Z"/><path class="cls-1" d="M247.61,37h21.63a24,24,0,0,1,8.3,1.33,16.25,16.25,0,0,1,6,3.71,12.94,12.94,0,0,1,2.88,4.39,14.84,14.84,0,0,1,1,5.54v.14a15,15,0,0,1-1,5.65,12.9,12.9,0,0,1-2.84,4.32,15.34,15.34,0,0,1-4.35,3,21,21,0,0,1-5.46,1.69l34.5,54.46h-7L267.66,67.86H253.29V87.44h-5.69Zm21.17,25.7A17.79,17.79,0,0,0,274,62a12.64,12.64,0,0,0,4.1-2.05,9.22,9.22,0,0,0,3.67-7.6v-.14a8.73,8.73,0,0,0-3.38-7.31q-3.39-2.63-9.5-2.63H253.29V62.75Z"/><path class="cls-1" d="M310.17,37h5.69v50.4h-5.69Z"/><path class="cls-1" d="M330.61,37h18.83a25.27,25.27,0,0,1,7.73,1.12,17.74,17.74,0,0,1,6,3.17,13.74,13.74,0,0,1,3.81,5,16.14,16.14,0,0,1,1.33,6.7v.14a14.89,14.89,0,0,1-5.86,12.31,18.61,18.61,0,0,1-6.29,3.13,27.14,27.14,0,0,1-7.61,1H336.3V87.44h-5.69Zm18.14,27.43a19,19,0,0,0,5.65-.79,13.14,13.14,0,0,0,4.39-2.27,10.05,10.05,0,0,0,2.81-3.49,10.3,10.3,0,0,0,1-4.54v-.14q0-5.4-3.71-8.17T349,42.3H336.3V64.48Z"/><path class="cls-1" d="M392,42.3H375.11V37h39.53V42.3H397.72V87.44H392Z"/><polyline class="cls-1" points="301.77 79.75 279.83 122.31 278.16 121.63 300.94 77.66"/><text class="cls-2" transform="translate(1.92 31.64)">The</text></svg>